# xmcd
#
# Track frame offsets:
# 150
# 27157
# 37955
# 58580
# 90355
# 122385
# 153877
# 175360
# 201512
# 227557
# 243667
# 259280
#
# Disc length: 3721 seconds
#
#
# Revision: 6
# Processed by: cddbd v1.5.2PL0 Copyright (c) Steve Scherf et al.
# Submitted via: FreeRIP 2.951 
#
DISCID=960e870c
DTITLE=John Coltrane - The Complete Atlantic Recordings - Disc 2
DYEAR=1959
DGENRE=Jazz
TTITLE0=Spiral
TTITLE1=Countdown
TTITLE2=Countdown (Alternate Take)
TTITLE3=Syeeda's Song Flute
TTITLE4=Syeeda's Song Flute (Alternate Take)
TTITLE5=Mr. P.C.
TTITLE6=Giant Steps
TTITLE7=Cousin Mary
TTITLE8=Cousin Mary (Alternate Take)
TTITLE9=I'll Wait and Pray
TTITLE10=I'll Wait and Pray (Alternate Take)
TTITLE11=Little Old Lady
EXTD=John Coltrane (tenor sax), Tommy Flanagan (piano, 1-9), Wynton Kelly (piano, 10-12), Paul Chambers (bass, Art Taylor (drums, 1-9), Jimmy Cobb (drums, 10-12). YEAR: 1959
EXTT0=
EXTT1=
EXTT2=
EXTT3=
EXTT4=
EXTT5=
EXTT6=
EXTT7=
EXTT8=
EXTT9=
EXTT10=
EXTT11=
PLAYORDER=
